<mxfile host="app.diagrams.net" modified="2023-08-24T20:30:05.785Z" agent="Mozilla/5.0 (Windows NT 10.0; Win64; x64) AppleWebKit/537.36 (KHTML, like Gecko) Chrome/115.0.0.0 Safari/537.36" etag="n9FG60a_gdecyEjg90cu" version="21.6.5" type="device">
  <diagram name="PÃ¡gina-1" id="oG3zLhZ9rtGFXenbHz3b">
    <mxGraphModel dx="1002" dy="519" grid="0" gridSize="10" guides="1" tooltips="1" connect="1" arrows="1" fold="1" page="0" pageScale="1" pageWidth="827" pageHeight="1169" math="0" shadow="0">
      <root>
        <mxCell id="0" />
        <mxCell id="1" parent="0" />
        <mxCell id="UGIKLv9QbXwBhPtGTgDy-1" value="VPC" style="points=[[0,0],[0.25,0],[0.5,0],[0.75,0],[1,0],[1,0.25],[1,0.5],[1,0.75],[1,1],[0.75,1],[0.5,1],[0.25,1],[0,1],[0,0.75],[0,0.5],[0,0.25]];outlineConnect=0;gradientColor=none;html=1;whiteSpace=wrap;fontSize=12;fontStyle=0;container=1;pointerEvents=0;collapsible=0;recursiveResize=0;shape=mxgraph.aws4.group;grIcon=mxgraph.aws4.group_vpc;strokeColor=#248814;fillColor=none;verticalAlign=top;align=left;spacingLeft=30;fontColor=#AAB7B8;dashed=0;" vertex="1" parent="1">
          <mxGeometry x="120" y="80" width="360" height="320" as="geometry" />
        </mxCell>
        <mxCell id="UGIKLv9QbXwBhPtGTgDy-2" value="Public subnet" style="points=[[0,0],[0.25,0],[0.5,0],[0.75,0],[1,0],[1,0.25],[1,0.5],[1,0.75],[1,1],[0.75,1],[0.5,1],[0.25,1],[0,1],[0,0.75],[0,0.5],[0,0.25]];outlineConnect=0;gradientColor=none;html=1;whiteSpace=wrap;fontSize=12;fontStyle=0;container=1;pointerEvents=0;collapsible=0;recursiveResize=0;shape=mxgraph.aws4.group;grIcon=mxgraph.aws4.group_security_group;grStroke=0;strokeColor=#248814;fillColor=#E9F3E6;verticalAlign=top;align=left;spacingLeft=30;fontColor=#248814;dashed=0;" vertex="1" parent="UGIKLv9QbXwBhPtGTgDy-1">
          <mxGeometry x="120" y="95" width="130" height="145" as="geometry" />
        </mxCell>
        <mxCell id="UGIKLv9QbXwBhPtGTgDy-5" value="" style="rounded=1;arcSize=10;dashed=1;strokeColor=#F59D56;fillColor=none;gradientColor=none;dashPattern=8 4;strokeWidth=2;" vertex="1" parent="UGIKLv9QbXwBhPtGTgDy-2">
          <mxGeometry x="15" y="27.5" width="100" height="90" as="geometry" />
        </mxCell>
        <mxCell id="UGIKLv9QbXwBhPtGTgDy-3" value="EC2" style="outlineConnect=0;dashed=0;verticalLabelPosition=bottom;verticalAlign=top;align=center;html=1;shape=mxgraph.aws3.ec2;fillColor=#F58534;gradientColor=none;" vertex="1" parent="UGIKLv9QbXwBhPtGTgDy-2">
          <mxGeometry x="40" y="35" width="50" height="58" as="geometry" />
        </mxCell>
        <mxCell id="UGIKLv9QbXwBhPtGTgDy-6" value="Security Group" style="text;html=1;strokeColor=none;fillColor=none;align=center;verticalAlign=middle;whiteSpace=wrap;rounded=0;" vertex="1" parent="UGIKLv9QbXwBhPtGTgDy-2">
          <mxGeometry x="5" y="115" width="120" height="30" as="geometry" />
        </mxCell>
        <mxCell id="UGIKLv9QbXwBhPtGTgDy-7" style="edgeStyle=orthogonalEdgeStyle;rounded=0;orthogonalLoop=1;jettySize=auto;html=1;" edge="1" parent="1" source="UGIKLv9QbXwBhPtGTgDy-4" target="UGIKLv9QbXwBhPtGTgDy-3">
          <mxGeometry relative="1" as="geometry" />
        </mxCell>
        <mxCell id="UGIKLv9QbXwBhPtGTgDy-4" value="CloudFront" style="outlineConnect=0;dashed=0;verticalLabelPosition=bottom;verticalAlign=top;align=center;html=1;shape=mxgraph.aws3.cloudfront;fillColor=#F58536;gradientColor=none;" vertex="1" parent="1">
          <mxGeometry x="500" y="192.5" width="76.5" height="93" as="geometry" />
        </mxCell>
        <mxCell id="UGIKLv9QbXwBhPtGTgDy-9" style="edgeStyle=orthogonalEdgeStyle;rounded=0;orthogonalLoop=1;jettySize=auto;html=1;" edge="1" parent="1" source="UGIKLv9QbXwBhPtGTgDy-8" target="UGIKLv9QbXwBhPtGTgDy-4">
          <mxGeometry relative="1" as="geometry" />
        </mxCell>
        <mxCell id="UGIKLv9QbXwBhPtGTgDy-8" value="Route53" style="outlineConnect=0;dashed=0;verticalLabelPosition=bottom;verticalAlign=top;align=center;html=1;shape=mxgraph.aws3.route_53;fillColor=#F58536;gradientColor=none;" vertex="1" parent="1">
          <mxGeometry x="680" y="196.25" width="70.5" height="85.5" as="geometry" />
        </mxCell>
      </root>
    </mxGraphModel>
  </diagram>
</mxfile>
